<svg width="48" height="48" viewBox="0 0 48 48" fill="none" xmlns="http://www.w3.org/2000/svg">
<rect x="2.00018" y="2" width="44" height="44" rx="10" fill="url(#paint0_linear_0_601)"/>
<g filter="url(#filter0_dd_0_601)">
<path fill-rule="evenodd" clip-rule="evenodd" d="M21.6016 21.8812C25.0547 21.8812 27.8516 18.999 27.8516 15.4406C27.8516 11.8822 25.0547 9 21.6016 9C18.1484 9 15.3516 11.8822 15.3516 15.4406C15.3516 18.999 18.1484 21.8812 21.6016 21.8812ZM21.6016 24.9481C17.4297 24.9481 8.90254 26.9417 9.00103 31.6954C9.00103 31.6954 9.10287 34.4173 12.2266 34.4173H15.1017H20.7115C20.3171 33.3443 20.1017 32.1855 20.1017 30.9773C20.1017 28.7192 20.8539 26.6342 22.1217 24.9577C21.9419 24.9513 21.7683 24.9481 21.6016 24.9481ZM38.1993 30.9773C38.1993 26.5522 34.5901 22.9546 30.1505 22.9546C25.711 22.9546 22.1017 26.5522 22.1017 30.9773C22.1017 35.4025 25.711 39 30.1505 39C34.5901 39 38.1993 35.4025 38.1993 30.9773ZM24.2537 32.6494C24.0843 32.0752 24.6604 31.5516 25.2365 31.7374L25.2874 31.7542C26.9141 32.2947 28.1172 33.6628 28.4222 35.3349L28.473 35.6051C28.5747 36.2301 27.9138 36.7199 27.3546 36.4159C25.8635 35.6558 24.7112 34.2877 24.2537 32.6494ZM35.0645 31.7374C35.6406 31.5516 36.2168 32.0752 36.0473 32.6494C35.5898 34.2877 34.4545 35.6558 32.9464 36.4159C32.3872 36.703 31.7264 36.2301 31.845 35.6051C31.8619 35.5376 31.8789 35.4531 31.8789 35.3856C32.2008 33.6797 33.4209 32.2778 35.0645 31.7374ZM24.796 27.9878C25.8465 26.113 27.846 24.8463 30.1505 24.8463C32.455 24.8463 34.4545 26.113 35.5051 27.9709C35.8101 28.5114 35.4034 29.1532 34.7934 29.1194C31.7094 28.9167 28.6085 28.9167 25.5246 29.1194C24.8976 29.1701 24.491 28.5283 24.796 27.9878Z" fill="url(#paint1_linear_0_601)"/>
</g>
<defs>
<filter id="filter0_dd_0_601" x="-0.666484" y="3.33333" width="49.3333" height="50.6667" filterUnits="userSpaceOnUse" color-interpolation-filters="sRGB">
<feFlood flood-opacity="0" result="BackgroundImageFix"/>
<feColorMatrix in="SourceAlpha" type="matrix" values="0 0 0 0 0 0 0 0 0 0 0 0 0 0 0 0 0 0 127 0" result="hardAlpha"/>
<feOffset dy="2.66667"/>
<feGaussianBlur stdDeviation="2.66667"/>
<feColorMatrix type="matrix" values="0 0 0 0 0 0 0 0 0 0 0 0 0 0 0 0 0 0 0.08 0"/>
<feBlend mode="normal" in2="BackgroundImageFix" result="effect1_dropShadow_0_601"/>
<feColorMatrix in="SourceAlpha" type="matrix" values="0 0 0 0 0 0 0 0 0 0 0 0 0 0 0 0 0 0 127 0" result="hardAlpha"/>
<feOffset dy="5.33333"/>
<feGaussianBlur stdDeviation="3.33333"/>
<feColorMatrix type="matrix" values="0 0 0 0 0 0 0 0 0 0 0 0 0 0 0 0 0 0 0.04 0"/>
<feBlend mode="normal" in2="effect1_dropShadow_0_601" result="effect2_dropShadow_0_601"/>
<feBlend mode="normal" in="SourceGraphic" in2="effect2_dropShadow_0_601" result="shape"/>
</filter>
<linearGradient id="paint0_linear_0_601" x1="24.0002" y1="2" x2="24.0002" y2="46" gradientUnits="userSpaceOnUse">
<stop stop-color="#00FF89"/>
<stop offset="1" stop-color="#00B964"/>
</linearGradient>
<linearGradient id="paint1_linear_0_601" x1="23.5997" y1="9" x2="23.5997" y2="39" gradientUnits="userSpaceOnUse">
<stop offset="0.642919" stop-color="white"/>
<stop offset="1" stop-color="#6EF7B7"/>
</linearGradient>
</defs>
</svg>
